<svg width="126" height="144" viewBox="0 0 126 144" fill="none" xmlns="http://www.w3.org/2000/svg">
<path d="M59.5471 113.654C59.315 94.1361 56.5102 72.8182 44.5783 60.8857C32.6464 48.9532 13.5696 50.5675 5.70882 67.8405C-5.90689 93.3643 37.4727 100.489 31.409 72.7582" stroke="#22C8ED" stroke-width="5" stroke-linecap="round" stroke-linejoin="round"/>
<path d="M80.8816 64.0166C76.537 73.2768 89.2083 95.4958 107.238 88.4904C125.268 81.485 123.858 57.8721 114.534 49.7459C105.21 41.6197 93.0831 36.8473 78.1505 50.5944C78.1505 50.5944 63.5534 64.0326 65.9499 107.934" stroke="#33AAEB" stroke-width="5" stroke-linecap="round" stroke-linejoin="round"/>
<path d="M61.1879 69.8156C52.3348 59.1913 44.9292 45.2303 45.7071 31.6799C46.4849 18.1294 53.2222 7.60841 70.5874 10.3722C87.9527 13.1361 89.3235 42.9321 70.2504 43.4637" stroke="#447DEB" stroke-width="5" stroke-linecap="round" stroke-linejoin="round"/>
<path d="M61.0535 142.317C53.0133 124.935 70.474 101.948 74.6671 110.931C78.8602 119.914 61.0535 142.317 61.0535 142.317Z" fill="#12D047"/>
<path d="M61.2538 141.953C93.0381 143.388 117.852 111.174 101.402 110.386C84.9526 109.599 61.2538 141.953 61.2538 141.953Z" fill="#12D047"/>
<path d="M64.0041 141.953C33.1829 143.388 9.12073 111.174 25.072 110.386C41.0234 109.599 64.0041 141.953 64.0041 141.953Z" fill="#12D047"/>
<path d="M106.884 35.5419C116.919 32.5989 129.716 40.2884 123.318 43.1559C116.92 46.0234 114.899 40.0989 106.884 35.5419Z" fill="#447DEB"/>
<path d="M31.2719 23.9877C28.6466 13.8651 15.4785 6.82928 16.3017 13.7919C17.1249 20.7546 23.2468 19.4481 31.2719 23.9877Z" fill="#447DEB"/>
<path d="M20.6432 38.0327C11.6828 32.6409 -2.64637 36.8334 2.81515 41.2297C8.27667 45.6261 11.7343 40.4079 20.6432 38.0327Z" fill="#447DEB"/>
<path d="M97.3895 23.7045C101.133 13.94 115.007 8.42482 113.408 15.2513C111.81 22.0778 105.873 20.0932 97.3895 23.7045Z" fill="#447DEB"/>
</svg>
