<?xml version="1.0" standalone="no"?>
<!DOCTYPE svg PUBLIC "-//W3C//DTD SVG 20010904//EN"
 "http://www.w3.org/TR/2001/REC-SVG-20010904/DTD/svg10.dtd">
<svg version="1.0" xmlns="http://www.w3.org/2000/svg"
 width="144.000000pt" height="144.000000pt" viewBox="0 0 144.000000 144.000000"
 preserveAspectRatio="xMidYMid meet">
<metadata>
Created by potrace 1.11, written by Peter Selinger 2001-2013
</metadata>
<g transform="translate(0.000000,144.000000) scale(0.100000,-0.100000)"
fill="#000000" stroke="none">
<path d="M671 1354 c-112 -33 -169 -162 -142 -320 27 -152 161 -361 196 -305
3 6 -15 41 -41 78 -82 118 -114 213 -110 318 6 137 87 207 213 184 33 -6 56
-18 75 -38 28 -31 49 -88 43 -118 -2 -10 -4 -26 -4 -35 -2 -29 -50 -77 -86
-84 -43 -8 -61 -27 -41 -43 18 -15 65 -9 104 15 61 35 93 140 69 221 -13 41
-61 99 -98 118 -40 21 -125 25 -178 9z"/>
<path d="M253 1314 c-10 -26 29 -64 90 -89 31 -12 57 -21 57 -18 0 16 -35 65
-65 92 -39 34 -72 40 -82 15z"/>
<path d="M1150 1299 c-36 -22 -80 -67 -80 -82 0 -9 43 -2 100 17 35 11 62 48
53 72 -7 20 -33 17 -73 -7z"/>
<path d="M143 1078 c-38 -10 -45 -41 -14 -58 29 -15 42 -13 107 16 52 23 57
27 37 35 -36 13 -96 17 -130 7z"/>
<path d="M1175 1074 c11 -8 27 -20 35 -27 9 -6 23 -18 32 -25 42 -33 107 -18
92 21 -8 23 -77 47 -132 47 -44 -1 -46 -2 -27 -16z"/>
<path d="M993 1035 c-145 -43 -228 -171 -261 -405 -3 -25 -6 -99 -7 -165 0
-117 1 -120 23 -123 13 -2 22 2 22 10 7 281 20 371 68 481 57 128 200 195 303
141 98 -50 133 -104 133 -204 0 -106 -54 -177 -149 -198 -107 -23 -220 92
-208 210 5 40 -6 53 -30 35 -25 -19 -28 -74 -7 -131 53 -140 181 -202 305
-147 124 55 180 225 115 354 -55 111 -195 176 -307 142z"/>
<path d="M325 929 c-78 -12 -137 -51 -180 -119 -75 -119 -45 -242 70 -286 83
-31 178 0 206 68 17 40 16 127 -1 138 -27 17 -39 -1 -39 -54 1 -59 -13 -89
-48 -105 -55 -25 -131 -1 -162 50 -60 98 56 261 183 261 171 0 282 -178 302
-482 7 -111 12 -127 40 -116 15 6 16 18 10 104 -10 143 -26 236 -53 302 -3 8
-7 17 -8 20 -7 27 -52 95 -89 133 -66 69 -148 100 -231 86z"/>
<path d="M767 330 c-36 -29 -77 -118 -84 -182 l-5 -54 -87 87 c-97 97 -131
123 -193 145 -128 45 -143 -52 -25 -167 180 -176 467 -184 675 -20 91 72 132
158 89 186 -59 38 -177 -23 -316 -165 -49 -49 -52 -51 -34 -19 40 71 61 142
51 177 -10 38 -33 42 -71 12z"/>
</g>
</svg>
